<svg viewBox="0 0 640 104" fill="none" xmlns="http://www.w3.org/2000/svg">
  <g clipPath="url(#clip0_439_24)">
  <path fillRule="evenodd" clipRule="evenodd" d="M81.9702 23.8142C82.0956 24.2119 82.2172 24.5977 82.3357 24.9652C85.8594 35.7816 86.0677 45.1849 85.9876 50.1871C85.9785 50.7609 85.9702 51.3276 85.9621 51.8872C85.7984 63.1441 85.6758 71.5742 79.4046 78.722C76.2012 82.3762 72.3891 84.8285 71.0117 85.6243C65.9983 88.5314 61.4975 89.3597 57.5093 90.0905C52.544 91 48.716 91 45 91C41.284 91 37.456 91 32.4907 90.0905C28.5025 89.3597 24.0177 88.5314 18.9883 85.6243C17.6109 84.8285 13.7988 82.3762 10.5954 78.722C4.34875 71.6021 4.2171 63.1954 4.04204 52.017C4.03262 51.4151 4.02307 50.8052 4.01243 50.1871C3.93234 45.1849 4.14056 35.7816 7.66431 24.9652C7.78644 24.5878 7.91196 24.1907 8.04152 23.7808C9.32224 19.7289 10.9987 14.425 13.7187 14.425C16.8421 14.425 19.581 22.1231 20.5901 25.0789C21.1768 26.722 22.7747 30.9469 23.2587 32.2266C23.3296 32.4142 23.3766 32.5385 23.393 32.5821C23.4092 32.5739 23.4277 32.5644 23.4483 32.5538C23.591 32.4805 23.836 32.3546 24.1298 32.2411C24.3936 32.1389 24.6445 32.0426 24.87 31.9561C25.3975 31.7536 25.7859 31.6045 25.8757 31.559C26.3676 31.3946 26.7113 31.2876 26.9815 31.2034C27.4857 31.0464 27.7345 30.969 28.2142 30.7469C28.2598 30.7252 28.3072 30.7034 28.3561 30.681C28.5991 30.5694 28.8791 30.4408 29.1592 30.211C29.1896 30.1825 29.2282 30.1478 29.2739 30.1067C29.5409 29.8668 30.049 29.4102 30.5687 28.7168C31.2828 27.6307 31.765 26.3093 32.1523 25.2481C32.3036 24.8336 32.4403 24.4588 32.5708 24.1532C33.0993 23.0001 34.1725 21.506 36.6551 20.2067C36.527 20.6127 36.3828 21.4248 36.5911 22.383C36.8634 23.7472 37.7283 24.6242 38.0646 24.9003C38.4651 23.8771 39.2018 22.4642 40.275 20.8888C43.2061 16.8774 46.8259 15.1071 47.835 14.6361C47.8709 14.6206 47.9076 14.6047 47.9449 14.5885C49.5078 13.9105 52.3432 12.6805 56.0037 13.077C58.198 13.3531 59.8798 14.019 60.953 14.5712C59.9439 14.7173 58.0699 15.1234 56.5963 16.6175C53.7773 19.4109 53.6492 24.3806 55.6513 27.0928C57.1855 29.1993 60.1866 30.2226 61.9978 30.8402L62.0101 30.8444C62.1258 30.9065 62.3718 30.9892 62.7197 31.1061C63.1903 31.2643 63.8473 31.4851 64.6209 31.8026C65.2135 31.9975 65.8862 32.2736 66.623 32.6146C66.7671 32.2736 68.7693 26.9953 69.426 25.1114C70.419 22.1231 73.1579 14.425 76.2813 14.425C79.0096 14.425 80.688 19.7478 81.9702 23.8142ZM34.8787 67.7219C36.2081 66.3577 36.4163 64.6037 36.5445 62.9147C36.6886 61.9565 37.2813 55.8175 32.6684 51.5787C31.7394 50.6854 28.4719 47.6484 24.0192 48.4604C20.095 49.1263 16.8275 52.5044 16.299 56.4996C15.8073 60.3973 18.1845 63.3534 19.1633 64.5706C19.2368 64.6619 19.3023 64.7434 19.3582 64.8148C21.6072 67.3607 24.3302 68.0741 25.9031 68.4861C25.9657 68.5025 26.0265 68.5184 26.0854 68.534C26.1647 68.5526 26.2476 68.5723 26.3339 68.5929C28.4272 69.0907 32.5098 70.0615 34.8787 67.7219ZM64.0612 68.4757C65.6315 68.0636 68.3844 67.3411 70.6287 64.7986C70.6847 64.7268 70.7509 64.6443 70.8254 64.5514C71.7963 63.3414 74.1777 60.3735 73.672 56.4671C73.1434 52.4881 69.8759 49.1101 65.9517 48.4279C61.499 47.6159 58.2315 50.6692 57.3025 51.5462C52.7057 55.8012 53.3143 61.9565 53.4425 62.8984C53.5706 64.5875 53.7788 66.3577 55.1082 67.7057C57.4771 70.0453 61.5598 69.0744 63.653 68.5766C63.7393 68.5561 63.8223 68.5364 63.9016 68.5177C63.9533 68.5041 64.0065 68.4901 64.0612 68.4757Z" fill="#A888FF">
  </path>
  <path d="M570.771 75.4H580.776V45.2668L593.718 64.8666H593.983L607.058 45V75.2666H617.196V28.8667H606.124L593.851 48.4666L581.577 28.8667H570.771V75.4ZM506.47 75.4H516.875L519.011 70.2C523.012 60.4666 526.88 50.7333 531.017 40.8668C534.885 50.2 538.62 59.5332 542.489 68.8667L545.158 75.2666H555.831L535.819 28.6H526.347L506.47 75.4ZM458.045 75.4H493.398V66.3332H468.182V56.5999H490.06V47.5334H468.182V38.0666H492.997V28.9999H457.909V75.4H458.045ZM412.153 66.3332V56.0666H424.026C429.229 56.0666 431.63 57.9332 431.63 61.1333V61.2666C431.63 64.7332 428.961 66.3332 424.427 66.3332H412.153ZM412.153 47.6666V37.9332H422.291C426.56 37.9332 428.961 39.6666 428.961 42.7333V42.8667C428.961 46.3333 426.159 47.7999 421.625 47.7999H412.153V47.6666ZM402.281 75.4H424.427C434.965 75.4 441.768 71.1334 441.768 62.7333V62.5999C441.768 56.3334 438.433 53.2667 433.097 51.1334C436.432 49.2666 439.234 46.3333 439.234 41.1333V40.9999C439.234 37.8001 438.167 35.2666 436.032 33.1333C433.365 30.4665 429.229 28.9999 423.893 28.9999H402.281V75.4ZM356.655 51.5333V38.1999H366.795C371.73 38.1999 374.8 40.4666 374.8 44.8666V45C374.8 48.8667 371.998 51.5333 366.928 51.5333H356.655ZM346.385 75.4H356.655V60.6H364.66L374.665 75.4H386.673L375.333 58.8666C381.202 56.7333 385.338 51.9334 385.338 44.4667V44.3334C385.338 39.9334 384.004 36.3334 381.337 33.6666C378.268 30.5999 373.733 28.9999 367.862 28.9999H346.65V75.4H346.385ZM293.956 75.4H329.309V66.3332H304.094V56.5999H325.974V47.5334H304.094V38.0666H328.909V28.9999H293.824V75.4H293.956ZM252.066 52.3333V38.1999H259.938C265.008 38.1999 268.208 40.6 268.208 45.2668V45.3999C268.208 49.4 265.273 52.4667 260.07 52.4667H252.066V52.3333ZM241.796 75.4H252.066V61.5334H259.805C270.211 61.5334 278.613 55.9333 278.613 45.2668V45.1334C278.613 35.6665 271.943 29.1332 260.872 29.1332H241.928V75.4H241.796ZM199.505 75.4H209.778V56.8666L227.654 28.9999H215.914L204.575 47.6666L193.501 28.9999H181.495L199.372 57.1334V75.4H199.505ZM128 75.4H138.272V56.7333H157.082V75.4H167.354V28.9999H157.082V47.2667H138.272V28.8667H128V75.4Z" fill="#A888FF"></path>
  </g>
  <defs>M649.984 75V41.4H665.248C668.896 41.4 672.112 42.104 674.896 43.512C677.68 44.888 679.856 46.824 681.424 49.32C682.992 51.816 683.776 54.776 683.776 58.2C683.776 61.592 682.992 64.552 681.424 67.08C679.856 69.576 677.68 71.528 674.896 72.936C672.112 74.312 668.896 75 665.248 75H649.984ZM657.76 68.616H664.864C667.104 68.616 669.04 68.2 670.672 67.368C672.336 66.504 673.616 65.288 674.512 63.72C675.44 62.152 675.904 60.312 675.904 58.2C675.904 56.056 675.44 54.216 674.512 52.68C673.616 51.112 672.336 49.912 670.672 49.08C669.04 48.216 667.104 47.784 664.864 47.784H657.76V68.616ZM710.76 75.576C708.104 75.576 705.64 75.144 703.368 74.28C701.128 73.416 699.176 72.2 697.512 70.632C695.88 69.064 694.6 67.224 693.672 65.112C692.776 63 692.328 60.696 692.328 58.2C692.328 55.704 692.776 53.4 693.672 51.288C694.6 49.176 695.896 47.336 697.56 45.768C699.224 44.2 701.176 42.984 703.416 42.12C705.656 41.256 708.088 40.824 710.712 40.824C713.368 40.824 715.8 41.256 718.008 42.12C720.248 42.984 722.184 44.2 723.816 45.768C725.48 47.336 726.776 49.176 727.704 51.288C728.632 53.368 729.096 55.672 729.096 58.2C729.096 60.696 728.632 63.016 727.704 65.16C726.776 67.272 725.48 69.112 723.816 70.68C722.184 72.216 720.248 73.416 718.008 74.28C715.8 75.144 713.384 75.576 710.76 75.576ZM710.712 68.952C712.216 68.952 713.592 68.696 714.84 68.184C716.12 67.672 717.24 66.936 718.2 65.976C719.16 65.016 719.896 63.88 720.408 62.568C720.952 61.256 721.224 59.8 721.224 58.2C721.224 56.6 720.952 55.144 720.408 53.832C719.896 52.52 719.16 51.384 718.2 50.424C717.272 49.464 716.168 48.728 714.888 48.216C713.608 47.704 712.216 47.448 710.712 47.448C709.208 47.448 707.816 47.704 706.536 48.216C705.288 48.728 704.184 49.464 703.224 50.424C702.264 51.384 701.512 52.52 700.968 53.832C700.456 55.144 700.2 56.6 700.2 58.2C700.2 59.768 700.456 61.224 700.968 62.568C701.512 63.88 702.248 65.016 703.176 65.976C704.136 66.936 705.256 67.672 706.536 68.184C707.816 68.696 709.208 68.952 710.712 68.952ZM755.82 75.576C753.228 75.576 750.812 75.16 748.572 74.328C746.364 73.464 744.444 72.248 742.812 70.68C741.18 69.112 739.9 67.272 738.972 65.16C738.076 63.048 737.628 60.728 737.628 58.2C737.628 55.672 738.076 53.352 738.972 51.24C739.9 49.128 741.18 47.288 742.812 45.72C744.476 44.152 746.412 42.952 748.62 42.12C750.828 41.256 753.244 40.824 755.868 40.824C758.78 40.824 761.404 41.336 763.74 42.36C766.108 43.352 768.092 44.824 769.692 46.776L764.7 51.384C763.548 50.072 762.268 49.096 760.86 48.456C759.452 47.784 757.916 47.448 756.252 47.448C754.684 47.448 753.244 47.704 751.932 48.216C750.62 48.728 749.484 49.464 748.524 50.424C747.564 51.384 746.812 52.52 746.268 53.832C745.756 55.144 745.5 56.6 745.5 58.2C745.5 59.8 745.756 61.256 746.268 62.568C746.812 63.88 747.564 65.016 748.524 65.976C749.484 66.936 750.62 67.672 751.932 68.184C753.244 68.696 754.684 68.952 756.252 68.952C757.916 68.952 759.452 68.632 760.86 67.992C762.268 67.32 763.548 66.312 764.7 64.968L769.692 69.576C768.092 71.528 766.108 73.016 763.74 74.04C761.404 75.064 758.764 75.576 755.82 75.576ZM790.596 75.576C787.908 75.576 785.332 75.224 782.868 74.52C780.404 73.784 778.42 72.84 776.916 71.688L779.556 65.832C780.996 66.856 782.692 67.704 784.644 68.376C786.628 69.016 788.628 69.336 790.644 69.336C792.18 69.336 793.412 69.192 794.34 68.904C795.3 68.584 796.004 68.152 796.452 67.608C796.9 67.064 797.124 66.44 797.124 65.736C797.124 64.84 796.772 64.136 796.068 63.624C795.364 63.08 794.436 62.648 793.284 62.328C792.132 61.976 790.852 61.656 789.444 61.368C788.068 61.048 786.676 60.664 785.268 60.216C783.892 59.768 782.628 59.192 781.476 58.488C780.324 57.784 779.38 56.856 778.644 55.704C777.94 54.552 777.588 53.08 777.588 51.288C777.588 49.368 778.1 47.624 779.124 46.056C780.18 44.456 781.748 43.192 783.828 42.264C785.94 41.304 788.58 40.824 791.748 40.824C793.86 40.824 795.94 41.08 797.988 41.592C800.036 42.072 801.844 42.808 803.412 43.8L801.012 49.704C799.444 48.808 797.876 48.152 796.308 47.736C794.74 47.288 793.204 47.064 791.7 47.064C790.196 47.064 788.964 47.24 788.004 47.592C787.044 47.944 786.356 48.408 785.94 48.984C785.524 49.528 785.316 50.168 785.316 50.904C785.316 51.768 785.668 52.472 786.372 53.016C787.076 53.528 788.004 53.944 789.156 54.264C790.308 54.584 791.572 54.904 792.948 55.224C794.356 55.544 795.748 55.912 797.124 56.328C798.532 56.744 799.812 57.304 800.964 58.008C802.116 58.712 803.044 59.64 803.748 60.792C804.484 61.944 804.852 63.4 804.852 65.16C804.852 67.048 804.324 68.776 803.268 70.344C802.212 71.912 800.628 73.176 798.516 74.136C796.436 75.096 793.796 75.576 790.596 75.576Z
    <clipPath id="clip0_439_24">
      <rect width="819" height="104" fill="white"></rect>
    </clipPath></defs>
</svg>