<svg width="495" height="571" viewBox="0 0 495 571" fill="none" xmlns="http://www.w3.org/2000/svg">
<g clip-path="url(#clip0_1103_24)">
<path d="M247.83 -0.375732L0.258789 142.419V428.254L247.83 571.205L495.402 428.41V142.486L247.83 -0.375732Z" fill="white"/>
<path d="M495.402 142.486L417.908 97.7734L343.359 140.79L420.854 185.525L495.402 142.486Z" fill="#E0684B"/>
<path d="M74.807 185.525L322.356 42.6413L247.83 -0.397949L0.258789 142.486L74.807 185.525Z" fill="#E0684B"/>
<path d="M170.336 330.105L247.83 374.818L325.302 330.105L247.83 285.37L170.336 330.105Z" fill="#E0684B"/>
<path d="M420.853 185.525V385.237L247.83 485.104L74.807 385.237V185.525L0.258789 142.486V428.254L247.83 571.138L495.402 428.254V142.486L420.853 185.525Z" fill="#BB464B"/>
<path d="M247.83 195.945L170.336 240.657V330.105L247.83 285.37L325.302 330.105V240.657L247.83 195.945Z" fill="#BB464B"/>
<path d="M420.853 185.525L325.302 240.658V330.105L247.83 374.818V485.104L420.853 385.237V185.525Z" fill="#E0DED8"/>
<path d="M74.8076 185.525L170.336 240.658V330.105L247.831 374.818V485.104L74.8076 385.237V185.525Z" fill="#D5D2CA"/>
<path d="M322.357 42.6414L417.908 97.7735L343.36 140.79L420.854 185.525L325.303 240.658L247.831 195.945L170.336 240.658L74.8076 185.525L322.357 42.6414Z" fill="white"/>
</g>
<defs>
<clipPath id="clip0_1103_24">
<rect width="495" height="571" fill="white"/>
</clipPath>
</defs>
</svg>
